<?xml version="1.0" encoding="UTF-8" standalone="no"?><!DOCTYPE svg PUBLIC "-//W3C//DTD SVG 1.1//EN" "http://www.w3.org/Graphics/SVG/1.1/DTD/svg11.dtd"><svg width="100%" height="100%" viewBox="0 0 698 698" version="1.1" xmlns="http://www.w3.org/2000/svg" xmlns:xlink="http://www.w3.org/1999/xlink" xml:space="preserve" xmlns:serif="http://www.serif.com/" style="fill-rule:evenodd;clip-rule:evenodd;stroke-linecap:round;stroke-linejoin:round;stroke-miterlimit:1.5;"><rect id="Artboard1" x="0" y="0" width="698" height="698" style="fill:none;"/><g id="Layer1"><path id="Cuerpo-Negro" serif:id="Cuerpo Negro" d="M198,624c0,0 168.414,99.053 317,-11l6,-189c0,0 0.65,-101.876 -105,-147l0,-84l88,-73l-174,0c0,0 -120.56,1.897 -132,129l0,375"/><path id="Pico" d="M416,193l0,-73l88,0l-88,73Z" style="fill:#fff176;stroke:#fff176;stroke-width:2px;"/><path id="Cuerpo-Blanco" serif:id="Cuerpo Blanco" d="M416.013,277c75.3,32.161 96.601,93.151 102.625,125.539c1.183,6.942 1.991,14.228 2.362,21.869l-4.035,127.096l-1.952,61.17l-0.505,0.699c-72.925,53.765 -150.572,57.275 -210.707,46.929l-0.788,-0.628l-1,-451c0,0 5.052,-63.454 65,-66l49,0l0,134.326Z" style="fill:#fff;stroke:#fff;stroke-width:2px;"/><path id="Contorno-de-Ala" serif:id="Contorno de Ala" d="M291,323c12.504,-12.235 23,-11 23,-11c0,0 3.763,0.022 16,3c17.427,4.242 50.762,18.632 57,66l0,49c0,0 12.951,175.364 -106,191l0,-162l-1,-109c0,0 -1.744,-14.531 11,-27Z" style="fill:#fff;stroke:#fff;stroke-width:5px;"/><g id="Martillo"><path d="M458.178,504.231l-19.963,1.22l6.105,99.814l19.962,-1.221l-6.104,-99.813Z" style="fill:#bf8147;"/><path d="M483.551,468.615l-74.86,4.579l2.136,34.934l74.86,-4.578l-2.136,-34.935Z" style="fill:#818181;"/><path d="M409.37,473.186c-9.647,0.59 -16.989,8.889 -16.399,18.536c0.59,9.647 8.889,16.989 18.536,16.399l-2.137,-34.935Z" style="fill:#818181;"/><path d="M484.689,503.611c9.647,-0.59 16.989,-8.889 16.399,-18.536c-0.59,-9.647 -8.888,-16.989 -18.535,-16.399l2.136,34.935Z" style="fill:#818181;"/></g><path id="Cinturon" d="M197.911,541.817l321.287,-23.337l-1.147,31.232l-320.048,22.529l-0.092,-30.424Z" style="fill:#6b4725;"/><path d="M518.051,549.712l-320.048,22.529l-0.092,-30.424l321.287,-23.337l-1.147,31.232Zm-318.134,-6.035l0.079,26.418l316.123,-22.251l0.999,-27.207l-317.201,23.04Z" style="fill:#6b4725;"/><path id="Ala" d="M291,323c12.504,-12.235 23,-11 23,-11c0,0 3.763,0.022 16,3c17.427,4.242 50.762,18.632 57,66l0,49c0,0 12.951,175.364 -106,191l0,-162l-1,-109c0,0 -1.744,-14.531 11,-27Z"/><path d="M313.264,311.966l0.137,0.002l0.124,0.003l0.109,0.004l0.096,0.005l0.082,0.004l0.067,0.005l0.091,0.008l0.03,0.003l0.045,0.001l0.058,0.002l0.083,0.004l0.108,0.006l0.134,0.009l0.162,0.012l0.189,0.016l0.219,0.02l0.248,0.026l0.279,0.031l0.311,0.037l0.343,0.043l0.376,0.051l0.201,0.028l0.21,0.031l0.218,0.032l0.227,0.034l0.236,0.037l0.246,0.038l0.254,0.041l0.263,0.044l0.274,0.046l0.282,0.048l0.292,0.051l0.302,0.054l0.312,0.056l0.321,0.059l0.332,0.062l0.342,0.065l0.352,0.068l0.362,0.071l0.373,0.074l0.384,0.078l0.394,0.08l0.405,0.084l0.416,0.087l0.426,0.091l0.438,0.094l0.45,0.098l0.46,0.102l0.472,0.105l0.484,0.109l0.495,0.113l0.507,0.117l0.519,0.12l0.531,0.125l0.542,0.129l0.556,0.134l0.567,0.137l0.411,0.101l0.417,0.105l0.423,0.109l0.428,0.113l0.434,0.117l0.438,0.121l0.444,0.125l0.449,0.129l0.453,0.133l0.458,0.138l0.463,0.142l0.467,0.146l0.236,0.075l0.236,0.076l0.237,0.078l0.239,0.078l0.239,0.079l0.241,0.081l0.241,0.082l0.243,0.083l0.243,0.084l0.245,0.086l0.245,0.086l0.246,0.088l0.247,0.089l0.248,0.09l0.249,0.092l0.25,0.093l0.251,0.094l0.251,0.095l0.252,0.097l0.253,0.097l0.254,0.1l0.255,0.1l0.255,0.102l0.256,0.103l0.257,0.104l0.257,0.106l0.259,0.107l0.258,0.108l0.26,0.11l0.26,0.111l0.261,0.113l0.261,0.113l0.262,0.116l0.263,0.116l0.263,0.118l0.263,0.12l0.265,0.121l0.264,0.122l0.265,0.124l0.266,0.125l0.266,0.127l0.267,0.128l0.267,0.129l0.268,0.131l0.267,0.133l0.269,0.134l0.268,0.135l0.269,0.137l0.27,0.139l0.27,0.14l0.27,0.141l0.27,0.143l0.271,0.145l0.27,0.146l0.272,0.148l0.271,0.15l0.272,0.151l0.272,0.152l0.272,0.154l0.272,0.156l0.272,0.157l0.273,0.159l0.272,0.161l0.273,0.162l0.273,0.164l0.273,0.166l0.273,0.167l0.273,0.169l0.273,0.17l0.273,0.173l0.274,0.174l0.273,0.175l0.273,0.178l0.273,0.179l0.273,0.181l0.273,0.182l0.273,0.184l0.273,0.187l0.273,0.187l0.272,0.19l0.273,0.191l0.272,0.194l0.272,0.195l0.272,0.196l0.272,0.199l0.271,0.2l0.271,0.202l0.271,0.205l0.271,0.205l0.271,0.208l0.27,0.21l0.27,0.211l0.269,0.214l0.269,0.215l0.269,0.217l0.269,0.219l0.268,0.221l0.267,0.223l0.268,0.225l0.266,0.226l0.267,0.229l0.266,0.231l0.265,0.232l0.265,0.235l0.264,0.236l0.264,0.239l0.264,0.24l0.262,0.243l0.262,0.244l0.262,0.247l0.261,0.248l0.26,0.251l0.26,0.252l0.259,0.255l0.259,0.257l0.257,0.258l0.258,0.261l0.256,0.263l0.255,0.265l0.255,0.267l0.254,0.269l0.254,0.272l0.252,0.273l0.252,0.276l0.251,0.277l0.25,0.28l0.249,0.282l0.249,0.285l0.247,0.286l0.247,0.288l0.245,0.291l0.245,0.293l0.244,0.295l0.243,0.297l0.242,0.3l0.241,0.302l0.239,0.304l0.239,0.306l0.238,0.308l0.237,0.311l0.236,0.313l0.234,0.315l0.234,0.318l0.232,0.32l0.232,0.322l0.23,0.324l0.229,0.327l0.227,0.329l0.227,0.332l0.226,0.334l0.224,0.336l0.223,0.338l0.221,0.341l0.221,0.343l0.219,0.346l0.218,0.348l0.217,0.35l0.215,0.353l0.214,0.356l0.212,0.357l0.211,0.36l0.21,0.363l0.209,0.365l0.206,0.367l0.206,0.37l0.204,0.372l0.203,0.375l0.201,0.378l0.199,0.379l0.199,0.383l0.196,0.385l0.195,0.387l0.194,0.39l0.192,0.392l0.19,0.395l0.189,0.398l0.187,0.4l0.185,0.403l0.184,0.405l0.182,0.408l0.181,0.41l0.178,0.413l0.177,0.416l0.176,0.418l0.173,0.421l0.172,0.424l0.17,0.426l0.168,0.429l0.167,0.431l0.165,0.434l0.162,0.437l0.161,0.44l0.159,0.442l0.158,0.445l0.155,0.447l0.153,0.451l0.152,0.453l0.149,0.455l0.148,0.459l0.146,0.461l0.143,0.464l0.142,0.467l0.139,0.47l0.138,0.472l0.135,0.475l0.134,0.478l0.131,0.481l0.13,0.483l0.127,0.487l0.125,0.489l0.123,0.492l0.12,0.495l0.119,0.498l0.116,0.501l0.114,0.503l0.112,0.506l0.11,0.51l0.107,0.512l0.106,0.515l0.103,0.518l0.1,0.521l0.098,0.524l0.096,0.526l0.094,0.53l0.091,0.533l0.089,0.535l0.087,0.539l0.084,0.542l0.082,0.544l0.079,0.548l0.077,0.55l0.074,0.554l0,49l0.009,0.127l0.025,0.377l0.017,0.279l0.019,0.338l0.023,0.398l0.023,0.454l0.026,0.511l0.026,0.567l0.027,0.622l0.027,0.675l0.027,0.728l0.026,0.779l0.025,0.831l0.013,0.433l0.011,0.447l0.011,0.458l0.011,0.471l0.01,0.482l0.01,0.495l0.008,0.506l0.008,0.518l0.008,0.529l0.006,0.541l0.006,0.552l0.004,0.563l0.004,0.574l0.002,0.585l0.002,0.596l0,0.606l-0.001,0.617l-0.002,0.628l-0.003,0.637l-0.005,0.648l-0.006,0.658l-0.008,0.668l-0.009,0.678l-0.011,0.687l-0.012,0.697l-0.014,0.707l-0.016,0.716l-0.017,0.725l-0.02,0.734l-0.021,0.743l-0.023,0.752l-0.025,0.761l-0.027,0.769l-0.029,0.778l-0.031,0.786l-0.034,0.795l-0.035,0.802l-0.038,0.811l-0.041,0.819l-0.042,0.826l-0.046,0.834l-0.047,0.842l-0.05,0.849l-0.053,0.856l-0.056,0.864l-0.058,0.87l-0.061,0.878l-0.063,0.884l-0.067,0.891l-0.069,0.898l-0.073,0.904l-0.075,0.911l-0.079,0.916l-0.081,0.923l-0.085,0.929l-0.088,0.935l-0.091,0.94l-0.095,0.946l-0.098,0.952l-0.101,0.957l-0.105,0.962l-0.108,0.967l-0.056,0.486l-0.056,0.487l-0.058,0.488l-0.058,0.489l-0.059,0.491l-0.06,0.491l-0.061,0.493l-0.062,0.494l-0.063,0.495l-0.064,0.496l-0.065,0.498l-0.065,0.498l-0.067,0.5l-0.068,0.5l-0.069,0.502l-0.069,0.502l-0.071,0.504l-0.072,0.505l-0.073,0.505l-0.073,0.507l-0.075,0.508l-0.076,0.508l-0.077,0.51l-0.078,0.51l-0.079,0.511l-0.08,0.512l-0.081,0.513l-0.082,0.514l-0.083,0.515l-0.084,0.515l-0.086,0.517l-0.086,0.517l-0.088,0.518l-0.089,0.519l-0.089,0.519l-0.091,0.52l-0.092,0.521l-0.093,0.522l-0.095,0.522l-0.095,0.523l-0.097,0.523l-0.098,0.525l-0.099,0.524l-0.1,0.526l-0.101,0.526l-0.103,0.527l-0.103,0.527l-0.105,0.528l-0.106,0.528l-0.108,0.529l-0.108,0.529l-0.11,0.53l-0.111,0.53l-0.112,0.531l-0.114,0.531l-0.114,0.532l-0.116,0.532l-0.118,0.533l-0.118,0.533l-0.12,0.533l-0.121,0.533l-0.122,0.534l-0.124,0.535l-0.125,0.534l-0.126,0.535l-0.128,0.535l-0.129,0.536l-0.13,0.536l-0.132,0.536l-0.132,0.536l-0.135,0.536l-0.135,0.537l-0.137,0.536l-0.139,0.537l-0.139,0.537l-0.142,0.538l-0.142,0.537l-0.144,0.537l-0.145,0.538l-0.147,0.537l-0.148,0.538l-0.15,0.538l-0.15,0.537l-0.153,0.538l-0.154,0.538l-0.155,0.538l-0.157,0.537l-0.158,0.538l-0.16,0.538l-0.161,0.537l-0.162,0.537l-0.164,0.538l-0.166,0.537l-0.167,0.537l-0.168,0.537l-0.171,0.537l-0.171,0.536l-0.173,0.537l-0.175,0.536l-0.176,0.536l-0.178,0.535l-0.179,0.536l-0.181,0.535l-0.182,0.535l-0.184,0.534l-0.186,0.535l-0.187,0.534l-0.189,0.533l-0.19,0.533l-0.192,0.533l-0.193,0.533l-0.196,0.532l-0.196,0.531l-0.199,0.532l-0.2,0.53l-0.201,0.531l-0.204,0.529l-0.205,0.53l-0.206,0.528l-0.208,0.529l-0.21,0.527l-0.212,0.528l-0.213,0.526l-0.215,0.526l-0.217,0.526l-0.218,0.524l-0.22,0.525l-0.222,0.523l-0.224,0.523l-0.225,0.522l-0.227,0.522l-0.229,0.52l-0.23,0.521l-0.233,0.519l-0.234,0.518l-0.236,0.518l-0.237,0.517l-0.239,0.517l-0.242,0.515l-0.243,0.515l-0.244,0.513l-0.247,0.513l-0.248,0.512l-0.25,0.512l-0.252,0.51l-0.254,0.509l-0.256,0.509l-0.257,0.507l-0.26,0.507l-0.261,0.505l-0.263,0.505l-0.265,0.503l-0.267,0.503l-0.269,0.501l-0.27,0.501l-0.273,0.499l-0.274,0.498l-0.277,0.498l-0.278,0.496l-0.28,0.495l-0.282,0.494l-0.285,0.492l-0.286,0.492l-0.288,0.49l-0.289,0.489l-0.292,0.488l-0.294,0.487l-0.296,0.485l-0.298,0.485l-0.3,0.482l-0.301,0.482l-0.304,0.48l-0.306,0.479l-0.308,0.478l-0.31,0.476l-0.312,0.475l-0.314,0.474l-0.315,0.472l-0.318,0.471l-0.321,0.469l-0.322,0.468l-0.324,0.467l-0.326,0.464l-0.328,0.464l-0.331,0.462l-0.332,0.46l-0.335,0.459l-0.337,0.458l-0.339,0.456l-0.341,0.454l-0.343,0.453l-0.345,0.451l-0.347,0.449l-0.35,0.448l-0.351,0.446l-0.354,0.445l-0.356,0.443l-0.358,0.441l-0.361,0.439l-0.362,0.438l-0.365,0.436l-0.367,0.434l-0.369,0.433l-0.371,0.43l-0.374,0.429l-0.375,0.427l-0.378,0.426l-0.38,0.423l-0.383,0.421l-0.385,0.42l-0.386,0.418l-0.39,0.416l-0.391,0.414l-0.394,0.412l-0.198,0.205l-0.198,0.205l-0.199,0.204l-0.199,0.204l-0.2,0.203l-0.201,0.203l-0.201,0.202l-0.202,0.202l-0.202,0.202l-0.203,0.2l-0.204,0.201l-0.204,0.199l-0.204,0.2l-0.205,0.198l-0.206,0.199l-0.207,0.198l-0.207,0.197l-0.207,0.196l-0.208,0.197l-0.209,0.195l-0.209,0.195l-0.21,0.195l-0.211,0.194l-0.211,0.194l-0.211,0.193l-0.213,0.192l-0.212,0.192l-0.214,0.192l-0.214,0.191l-0.215,0.19l-0.215,0.19l-0.216,0.189l-0.216,0.189l-0.217,0.188l-0.218,0.187l-0.218,0.187l-0.219,0.187l-0.219,0.186l-0.22,0.185l-0.221,0.185l-0.221,0.184l-0.222,0.184l-0.222,0.183l-0.223,0.183l-0.224,0.182l-0.224,0.181l-0.225,0.181l-0.225,0.18l-0.226,0.18l-0.227,0.179l-0.227,0.179l-0.228,0.178l-0.228,0.177l-0.23,0.177l-0.229,0.176l-0.231,0.176l-0.231,0.175l-0.231,0.174l-0.232,0.174l-0.233,0.173l-0.234,0.173l-0.234,0.172l-0.234,0.171l-0.236,0.171l-0.235,0.17l-0.237,0.17l-0.237,0.169l-0.238,0.168l-0.238,0.168l-0.239,0.167l-0.24,0.167l-0.24,0.166l-0.241,0.165l-0.242,0.165l-0.242,0.164l-0.243,0.163l-0.243,0.163l-0.244,0.162l-0.245,0.161l-0.245,0.161l-0.246,0.161l-0.247,0.159l-0.247,0.159l-0.248,0.159l-0.248,0.157l-0.25,0.157l-0.249,0.157l-0.251,0.155l-0.251,0.155l-0.252,0.155l-0.252,0.154l-0.253,0.153l-0.254,0.152l-0.254,0.152l-0.255,0.151l-0.256,0.151l-0.256,0.149l-0.257,0.15l-0.257,0.148l-0.258,0.148l-0.259,0.147l-0.26,0.146l-0.26,0.146l-0.261,0.145l-0.261,0.145l-0.262,0.143l-0.263,0.143l-0.263,0.143l-0.264,0.141l-0.265,0.141l-0.266,0.141l-0.266,0.139l-0.266,0.139l-0.268,0.138l-0.268,0.138l-0.268,0.137l-0.27,0.136l-0.27,0.135l-0.271,0.135l-0.271,0.134l-0.272,0.133l-0.273,0.132l-0.273,0.132l-0.274,0.131l-0.275,0.131l-0.275,0.129l-0.276,0.129l-0.277,0.128l-0.277,0.128l-0.278,0.127l-0.279,0.126l-0.28,0.125l-0.28,0.125l-0.28,0.123l-0.282,0.123l-0.282,0.123l-0.283,0.121l-0.283,0.121l-0.285,0.12l-0.284,0.12l-0.286,0.118l-0.286,0.118l-0.287,0.117l-0.288,0.117l-0.288,0.115l-0.289,0.115l-0.29,0.114l-0.29,0.113l-0.291,0.113l-0.292,0.112l-0.292,0.111l-0.293,0.11l-0.294,0.11l-0.295,0.108l-0.295,0.108l-0.296,0.107l-0.296,0.107l-0.298,0.105l-0.298,0.105l-0.298,0.104l-0.3,0.103l-0.3,0.103l-0.301,0.101l-0.301,0.101l-0.302,0.1l-0.303,0.1l-0.304,0.098l-0.304,0.098l-0.305,0.097l-0.306,0.096l-0.306,0.095l-0.307,0.094l-0.308,0.094l-0.309,0.093l-0.309,0.092l-0.31,0.091l-0.311,0.091l-0.311,0.089l-0.312,0.089l-0.313,0.088l-0.314,0.087l-0.314,0.086l-0.315,0.086l-0.316,0.084l-0.316,0.084l-0.317,0.083l-0.318,0.082l-0.319,0.081l-0.319,0.081l-0.32,0.08l-0.321,0.078l-0.321,0.078l-0.322,0.077l-0.323,0.077l-0.324,0.075l-0.324,0.074l-0.325,0.074l-0.326,0.073l-0.327,0.072l-0.327,0.071l-0.328,0.07l-0.329,0.07l-0.33,0.068l-0.33,0.068l-0.331,0.066l-0.331,0.066l-0.333,0.065l-0.333,0.065l-0.334,0.063l-0.335,0.062l-0.335,0.062l-0.336,0.06l-0.337,0.06l-0.338,0.059l-0.338,0.058l-0.339,0.057l-0.34,0.056l-0.341,0.056l-0.341,0.054l-0.342,0.053l-0.343,0.053l-0.344,0.052l-0.344,0.051l-0.345,0.049l-0.346,0.049l-0.347,0.049l-0.347,0.047l-0.348,0.046l0,-162l-1,-109l-0.005,-0.042l-0.011,-0.124l-0.008,-0.092l-0.009,-0.111l-0.008,-0.131l-0.009,-0.149l-0.008,-0.167l-0.008,-0.185l-0.006,-0.203l-0.005,-0.219l-0.003,-0.237l0,-0.252l0.002,-0.269l0.005,-0.284l0.003,-0.148l0.005,-0.152l0.006,-0.155l0.006,-0.159l0.008,-0.163l0.009,-0.166l0.009,-0.17l0.011,-0.173l0.013,-0.176l0.013,-0.18l0.015,-0.184l0.016,-0.186l0.018,-0.19l0.019,-0.193l0.02,-0.196l0.022,-0.199l0.024,-0.202l0.025,-0.206l0.027,-0.208l0.029,-0.211l0.03,-0.214l0.033,-0.217l0.034,-0.219l0.036,-0.222l0.038,-0.225l0.04,-0.228l0.042,-0.23l0.044,-0.233l0.047,-0.235l0.048,-0.237l0.051,-0.24l0.053,-0.242l0.055,-0.245l0.058,-0.246l0.06,-0.249l0.063,-0.251l0.065,-0.253l0.068,-0.256l0.07,-0.257l0.074,-0.259l0.075,-0.261l0.079,-0.263l0.081,-0.265l0.084,-0.266l0.087,-0.268l0.09,-0.27l0.093,-0.271l0.096,-0.273l0.099,-0.275l0.102,-0.276l0.106,-0.278l0.108,-0.278l0.112,-0.281l0.115,-0.281l0.119,-0.283l0.122,-0.284l0.125,-0.285l0.129,-0.286l0.132,-0.287l0.136,-0.288l0.14,-0.289l0.143,-0.29l0.147,-0.291l0.075,-0.146l0.076,-0.146l0.077,-0.146l0.077,-0.146l0.079,-0.147l0.08,-0.147l0.081,-0.146l0.081,-0.147l0.083,-0.148l0.084,-0.147l0.084,-0.147l0.086,-0.148l0.087,-0.148l0.087,-0.148l0.089,-0.148l0.09,-0.148l0.091,-0.148l0.092,-0.148l0.092,-0.148l0.094,-0.149l0.095,-0.149l0.096,-0.148l0.098,-0.149l0.098,-0.149l0.099,-0.149l0.1,-0.148l0.102,-0.149l0.103,-0.149l0.103,-0.149l0.105,-0.149l0.106,-0.15l0.107,-0.149l0.108,-0.149l0.109,-0.149l0.111,-0.149l0.111,-0.149l0.113,-0.149l0.114,-0.149l0.115,-0.149l0.116,-0.149l0.118,-0.149l0.118,-0.149l0.12,-0.149l0.121,-0.149l0.122,-0.149l0.124,-0.149l0.124,-0.148l0.126,-0.149l0.127,-0.149l0.128,-0.148l0.13,-0.148l0.131,-0.149l0.131,-0.148l0.134,-0.148l0.134,-0.148l0.136,-0.147l0.137,-0.148l0.138,-0.147l0.14,-0.148l0.141,-0.147l0.142,-0.147l0.143,-0.147l0.145,-0.147l0.146,-0.146l0.147,-0.147l0.149,-0.146l0.146,-0.143l0.147,-0.141l0.292,-0.28l0.291,-0.274l0.29,-0.27l0.29,-0.265l0.288,-0.26l0.288,-0.256l0.287,-0.251l0.286,-0.246l0.285,-0.242l0.284,-0.237l0.283,-0.233l0.282,-0.228l0.281,-0.224l0.28,-0.22l0.278,-0.215l0.278,-0.211l0.276,-0.207l0.276,-0.203l0.274,-0.199l0.273,-0.194l0.271,-0.19l0.271,-0.187l0.269,-0.182l0.268,-0.179l0.266,-0.174l0.265,-0.171l0.264,-0.167l0.262,-0.164l0.261,-0.159l0.259,-0.156l0.258,-0.152l0.256,-0.149l0.255,-0.145l0.253,-0.142l0.252,-0.138l0.25,-0.134l0.249,-0.132l0.246,-0.128l0.245,-0.125l0.244,-0.121l0.241,-0.118l0.24,-0.115l0.238,-0.112l0.237,-0.109l0.234,-0.106l0.233,-0.103l0.23,-0.1l0.229,-0.097l0.227,-0.094l0.225,-0.091l0.223,-0.089l0.221,-0.086l0.219,-0.083l0.217,-0.08l0.215,-0.078l0.213,-0.075l0.21,-0.073l0.209,-0.07l0.206,-0.068l0.204,-0.065l0.202,-0.063l0.2,-0.061l0.197,-0.058l0.195,-0.056l0.193,-0.054l0.191,-0.052l0.188,-0.049l0.185,-0.048l0.184,-0.045l0.18,-0.044l0.179,-0.042l0.176,-0.039l0.173,-0.038l0.171,-0.036l0.168,-0.034l0.166,-0.033l0.163,-0.031l0.161,-0.029l0.158,-0.027l0.155,-0.026l0.152,-0.025l0.15,-0.023l0.147,-0.021l0.144,-0.021l0.142,-0.018l0.138,-0.018l0.136,-0.016l0.133,-0.015l0.13,-0.014l0.127,-0.012l0.124,-0.012l0.121,-0.01l0.118,-0.01l0.228,-0.016l0.215,-0.012l0.202,-0.009l0.19,-0.007l0.177,-0.003l0.164,-0.002l0.151,0.001Zm-0.24,5l-0.117,0.003l-0.129,0.004l-0.141,0.006l-0.153,0.009l-0.172,0.012l-0.079,0.007l-0.089,0.007l-0.091,0.009l-0.095,0.009l-0.098,0.011l-0.1,0.011l-0.103,0.012l-0.106,0.013l-0.108,0.015l-0.11,0.015l-0.114,0.017l-0.117,0.018l-0.118,0.019l-0.121,0.02l-0.125,0.022l-0.126,0.023l-0.129,0.024l-0.131,0.026l-0.134,0.027l-0.136,0.029l-0.139,0.03l-0.141,0.032l-0.144,0.033l-0.145,0.035l-0.149,0.037l-0.15,0.039l-0.153,0.04l-0.155,0.042l-0.158,0.044l-0.159,0.046l-0.162,0.048l-0.164,0.05l-0.167,0.052l-0.168,0.054l-0.171,0.056l-0.173,0.058l-0.175,0.06l-0.177,0.063l-0.179,0.065l-0.181,0.067l-0.184,0.07l-0.185,0.071l-0.187,0.075l-0.19,0.077l-0.191,0.079l-0.194,0.082l-0.195,0.085l-0.197,0.087l-0.199,0.09l-0.201,0.092l-0.203,0.096l-0.205,0.098l-0.207,0.101l-0.208,0.104l-0.21,0.107l-0.212,0.11l-0.214,0.114l-0.216,0.116l-0.217,0.119l-0.219,0.122l-0.221,0.126l-0.223,0.129l-0.224,0.133l-0.226,0.135l-0.227,0.14l-0.229,0.142l-0.231,0.146l-0.232,0.15l-0.234,0.153l-0.235,0.157l-0.237,0.161l-0.238,0.164l-0.24,0.168l-0.242,0.172l-0.242,0.176l-0.244,0.18l-0.246,0.183l-0.247,0.188l-0.248,0.192l-0.25,0.196l-0.251,0.2l-0.252,0.204l-0.254,0.209l-0.255,0.213l-0.256,0.217l-0.257,0.222l-0.259,0.226l-0.259,0.231l-0.261,0.235l-0.262,0.24l-0.264,0.244l-0.264,0.249l-0.268,0.257l-0.13,0.126l-0.132,0.129l-0.132,0.129l-0.129,0.129l-0.128,0.128l-0.127,0.129l-0.126,0.129l-0.124,0.129l-0.124,0.128l-0.122,0.129l-0.12,0.129l-0.12,0.129l-0.119,0.13l-0.117,0.129l-0.117,0.129l-0.115,0.129l-0.114,0.129l-0.113,0.13l-0.111,0.129l-0.111,0.129l-0.11,0.13l-0.108,0.129l-0.107,0.129l-0.107,0.13l-0.104,0.129l-0.104,0.129l-0.104,0.13l-0.101,0.129l-0.102,0.13l-0.099,0.129l-0.099,0.129l-0.098,0.13l-0.097,0.129l-0.095,0.129l-0.095,0.129l-0.094,0.129l-0.092,0.129l-0.092,0.13l-0.09,0.128l-0.09,0.129l-0.089,0.129l-0.088,0.129l-0.086,0.128l-0.086,0.129l-0.085,0.128l-0.084,0.129l-0.083,0.128l-0.082,0.128l-0.081,0.129l-0.08,0.128l-0.079,0.128l-0.078,0.127l-0.078,0.128l-0.076,0.128l-0.076,0.127l-0.075,0.127l-0.073,0.128l-0.073,0.127l-0.073,0.127l-0.071,0.126l-0.07,0.127l-0.07,0.126l-0.068,0.127l-0.068,0.126l-0.067,0.126l-0.066,0.125l-0.065,0.126l-0.062,0.12l-0.129,0.256l-0.123,0.249l-0.12,0.249l-0.117,0.247l-0.114,0.247l-0.111,0.246l-0.108,0.245l-0.104,0.244l-0.102,0.243l-0.099,0.242l-0.096,0.241l-0.093,0.239l-0.091,0.238l-0.088,0.237l-0.085,0.236l-0.082,0.235l-0.08,0.233l-0.077,0.231l-0.075,0.231l-0.072,0.228l-0.07,0.227l-0.067,0.226l-0.065,0.224l-0.063,0.222l-0.06,0.221l-0.058,0.219l-0.056,0.217l-0.054,0.215l-0.052,0.214l-0.049,0.211l-0.048,0.209l-0.045,0.208l-0.044,0.205l-0.041,0.204l-0.04,0.201l-0.038,0.199l-0.036,0.197l-0.034,0.194l-0.032,0.192l-0.031,0.19l-0.029,0.187l-0.028,0.185l-0.026,0.182l-0.024,0.18l-0.023,0.177l-0.022,0.174l-0.02,0.172l-0.019,0.169l-0.017,0.166l-0.016,0.164l-0.015,0.16l-0.013,0.157l-0.013,0.155l-0.011,0.151l-0.011,0.148l-0.009,0.146l-0.008,0.141l-0.007,0.139l-0.007,0.136l-0.005,0.132l-0.005,0.128l-0.004,0.125l-0.002,0.116l-0.005,0.239l-0.001,0.218l0,0.204l0.002,0.188l0.004,0.172l0.005,0.156l0.006,0.139l0.006,0.123l0.006,0.105l0.006,0.088l0.005,0.069l0.004,0.043l0.005,0.061l0.028,0.256l1.003,109.273l0,156.18l0.242,-0.044l0.32,-0.06l0.32,-0.061l0.318,-0.061l0.319,-0.062l0.317,-0.063l0.316,-0.064l0.316,-0.065l0.315,-0.065l0.314,-0.067l0.314,-0.067l0.312,-0.068l0.312,-0.068l0.312,-0.07l0.31,-0.07l0.31,-0.071l0.31,-0.073l0.308,-0.072l0.307,-0.074l0.307,-0.074l0.306,-0.075l0.306,-0.076l0.304,-0.077l0.305,-0.078l0.303,-0.078l0.302,-0.079l0.302,-0.08l0.301,-0.081l0.301,-0.081l0.299,-0.083l0.299,-0.083l0.299,-0.084l0.297,-0.084l0.297,-0.085l0.296,-0.087l0.295,-0.087l0.295,-0.087l0.294,-0.089l0.293,-0.089l0.293,-0.09l0.291,-0.091l0.292,-0.091l0.29,-0.092l0.29,-0.093l0.289,-0.094l0.288,-0.095l0.288,-0.095l0.287,-0.096l0.286,-0.097l0.286,-0.097l0.285,-0.098l0.284,-0.099l0.283,-0.1l0.283,-0.1l0.282,-0.101l0.281,-0.102l0.281,-0.103l0.28,-0.103l0.28,-0.105l0.279,-0.104l0.278,-0.106l0.277,-0.106l0.276,-0.107l0.276,-0.108l0.276,-0.108l0.275,-0.11l0.273,-0.109l0.274,-0.111l0.272,-0.111l0.272,-0.112l0.272,-0.113l0.27,-0.113l0.27,-0.114l0.269,-0.115l0.269,-0.116l0.268,-0.116l0.267,-0.117l0.267,-0.117l0.266,-0.118l0.265,-0.12l0.265,-0.119l0.264,-0.12l0.263,-0.122l0.263,-0.121l0.262,-0.123l0.262,-0.123l0.26,-0.124l0.26,-0.124l0.26,-0.125l0.258,-0.126l0.259,-0.126l0.257,-0.127l0.257,-0.128l0.257,-0.129l0.255,-0.129l0.255,-0.13l0.255,-0.13l0.253,-0.131l0.253,-0.132l0.253,-0.133l0.252,-0.132l0.251,-0.134l0.25,-0.135l0.25,-0.135l0.25,-0.136l0.248,-0.136l0.248,-0.137l0.248,-0.138l0.247,-0.138l0.246,-0.139l0.245,-0.139l0.245,-0.141l0.244,-0.14l0.244,-0.142l0.243,-0.142l0.243,-0.143l0.242,-0.143l0.241,-0.144l0.24,-0.145l0.241,-0.145l0.239,-0.146l0.239,-0.146l0.238,-0.148l0.238,-0.147l0.237,-0.149l0.236,-0.149l0.236,-0.149l0.235,-0.15l0.235,-0.151l0.234,-0.152l0.233,-0.152l0.233,-0.153l0.232,-0.153l0.232,-0.154l0.231,-0.154l0.23,-0.155l0.23,-0.156l0.229,-0.156l0.229,-0.157l0.228,-0.157l0.227,-0.159l0.227,-0.158l0.227,-0.16l0.225,-0.159l0.225,-0.161l0.225,-0.161l0.224,-0.161l0.223,-0.163l0.223,-0.162l0.222,-0.164l0.222,-0.164l0.221,-0.164l0.22,-0.165l0.22,-0.166l0.22,-0.166l0.218,-0.167l0.219,-0.167l0.218,-0.168l0.216,-0.168l0.217,-0.17l0.216,-0.169l0.215,-0.17l0.215,-0.171l0.214,-0.171l0.214,-0.172l0.213,-0.173l0.212,-0.173l0.212,-0.173l0.212,-0.174l0.211,-0.175l0.21,-0.175l0.209,-0.176l0.21,-0.176l0.208,-0.177l0.208,-0.177l0.208,-0.178l0.207,-0.179l0.206,-0.178l0.206,-0.18l0.205,-0.18l0.205,-0.181l0.204,-0.181l0.204,-0.181l0.203,-0.182l0.203,-0.183l0.202,-0.183l0.201,-0.184l0.201,-0.184l0.2,-0.185l0.2,-0.185l0.199,-0.186l0.199,-0.186l0.198,-0.187l0.198,-0.188l0.197,-0.188l0.197,-0.188l0.196,-0.189l0.195,-0.189l0.195,-0.19l0.194,-0.19l0.194,-0.191l0.194,-0.192l0.193,-0.191l0.192,-0.193l0.192,-0.193l0.191,-0.193l0.191,-0.194l0.19,-0.194l0.19,-0.195l0.189,-0.195l0.186,-0.194l0.378,-0.395l0.374,-0.395l0.371,-0.397l0.369,-0.399l0.368,-0.401l0.365,-0.402l0.363,-0.405l0.361,-0.406l0.359,-0.408l0.357,-0.41l0.355,-0.412l0.353,-0.413l0.351,-0.416l0.349,-0.417l0.347,-0.418l0.345,-0.421l0.342,-0.422l0.341,-0.424l0.339,-0.426l0.337,-0.427l0.335,-0.43l0.333,-0.43l0.331,-0.433l0.328,-0.434l0.327,-0.435l0.326,-0.438l0.323,-0.439l0.321,-0.44l0.319,-0.442l0.317,-0.443l0.315,-0.446l0.314,-0.446l0.311,-0.448l0.31,-0.45l0.307,-0.451l0.306,-0.453l0.304,-0.454l0.302,-0.455l0.3,-0.457l0.298,-0.458l0.296,-0.46l0.295,-0.461l0.292,-0.463l0.291,-0.464l0.289,-0.465l0.287,-0.466l0.285,-0.468l0.283,-0.47l0.282,-0.47l0.279,-0.472l0.278,-0.473l0.276,-0.474l0.274,-0.475l0.272,-0.477l0.271,-0.478l0.269,-0.479l0.267,-0.48l0.265,-0.482l0.263,-0.482l0.262,-0.484l0.259,-0.485l0.258,-0.485l0.257,-0.487l0.254,-0.489l0.253,-0.489l0.251,-0.49l0.249,-0.491l0.248,-0.492l0.246,-0.493l0.244,-0.495l0.242,-0.495l0.241,-0.496l0.238,-0.497l0.238,-0.498l0.235,-0.499l0.234,-0.499l0.232,-0.501l0.231,-0.502l0.228,-0.502l0.227,-0.503l0.226,-0.504l0.224,-0.505l0.222,-0.506l0.22,-0.506l0.219,-0.507l0.217,-0.508l0.216,-0.509l0.213,-0.509l0.213,-0.51l0.21,-0.511l0.209,-0.511l0.208,-0.512l0.206,-0.513l0.204,-0.513l0.202,-0.514l0.202,-0.515l0.199,-0.515l0.198,-0.516l0.196,-0.516l0.195,-0.517l0.193,-0.517l0.192,-0.518l0.19,-0.518l0.188,-0.519l0.187,-0.519l0.186,-0.52l0.184,-0.52l0.182,-0.52l0.181,-0.521l0.179,-0.522l0.178,-0.521l0.177,-0.522l0.175,-0.523l0.173,-0.522l0.172,-0.523l0.171,-0.524l0.169,-0.523l0.167,-0.524l0.166,-0.524l0.165,-0.524l0.163,-0.525l0.162,-0.525l0.16,-0.525l0.159,-0.525l0.157,-0.525l0.156,-0.525l0.155,-0.526l0.153,-0.525l0.152,-0.526l0.15,-0.526l0.149,-0.526l0.148,-0.526l0.146,-0.526l0.145,-0.526l0.144,-0.526l0.142,-0.526l0.141,-0.526l0.139,-0.525l0.138,-0.526l0.137,-0.526l0.135,-0.526l0.135,-0.525l0.132,-0.526l0.132,-0.525l0.13,-0.525l0.129,-0.525l0.127,-0.525l0.127,-0.525l0.125,-0.524l0.124,-0.524l0.122,-0.524l0.121,-0.524l0.12,-0.523l0.119,-0.523l0.117,-0.523l0.117,-0.523l0.115,-0.522l0.113,-0.522l0.113,-0.521l0.111,-0.521l0.11,-0.521l0.109,-0.52l0.108,-0.52l0.106,-0.519l0.106,-0.519l0.104,-0.519l0.103,-0.518l0.101,-0.517l0.101,-0.517l0.099,-0.517l0.099,-0.516l0.097,-0.515l0.096,-0.515l0.095,-0.514l0.094,-0.514l0.092,-0.512l0.092,-0.513l0.09,-0.512l0.09,-0.51l0.088,-0.511l0.087,-0.509l0.086,-0.509l0.085,-0.508l0.084,-0.508l0.083,-0.507l0.082,-0.505l0.08,-0.505l0.08,-0.505l0.079,-0.503l0.077,-0.503l0.077,-0.502l0.075,-0.501l0.075,-0.5l0.073,-0.499l0.073,-0.498l0.072,-0.497l0.07,-0.496l0.07,-0.496l0.068,-0.494l0.068,-0.494l0.066,-0.492l0.066,-0.491l0.065,-0.491l0.064,-0.489l0.062,-0.488l0.062,-0.488l0.061,-0.485l0.06,-0.485l0.06,-0.484l0.058,-0.483l0.057,-0.482l0.057,-0.48l0.055,-0.479l0.054,-0.476l0.107,-0.954l0.104,-0.947l0.099,-0.943l0.097,-0.936l0.093,-0.932l0.09,-0.926l0.086,-0.92l0.084,-0.915l0.08,-0.909l0.077,-0.903l0.075,-0.897l0.071,-0.89l0.068,-0.885l0.066,-0.877l0.063,-0.872l0.06,-0.864l0.057,-0.858l0.055,-0.851l0.052,-0.843l0.049,-0.837l0.047,-0.829l0.045,-0.822l0.042,-0.814l0.039,-0.807l0.038,-0.799l0.035,-0.79l0.033,-0.783l0.031,-0.775l0.028,-0.766l0.027,-0.758l0.025,-0.75l0.023,-0.741l0.02,-0.732l0.019,-0.723l0.018,-0.714l0.015,-0.705l0.014,-0.696l0.012,-0.687l0.01,-0.677l0.009,-0.667l0.008,-0.658l0.006,-0.648l0.005,-0.638l0.003,-0.627l0.002,-0.618l0.001,-0.607l0,-0.597l-0.002,-0.586l-0.002,-0.575l-0.004,-0.565l-0.004,-0.554l-0.006,-0.543l-0.006,-0.531l-0.007,-0.52l-0.008,-0.509l-0.009,-0.497l-0.009,-0.486l-0.01,-0.473l-0.01,-0.462l-0.011,-0.45l-0.012,-0.438l-0.011,-0.423l-0.025,-0.816l-0.026,-0.763l-0.026,-0.712l-0.027,-0.659l-0.026,-0.605l-0.026,-0.552l-0.024,-0.496l-0.023,-0.44l-0.021,-0.382l-0.019,-0.324l-0.016,-0.262l-0.024,-0.355l-0.02,-0.289l0,-48.842l-0.028,-0.209l-0.073,-0.526l-0.076,-0.522l-0.078,-0.519l-0.08,-0.516l-0.082,-0.513l-0.085,-0.51l-0.087,-0.506l-0.089,-0.504l-0.091,-0.501l-0.094,-0.498l-0.095,-0.495l-0.098,-0.492l-0.1,-0.489l-0.102,-0.486l-0.104,-0.483l-0.106,-0.48l-0.108,-0.477l-0.11,-0.474l-0.112,-0.471l-0.115,-0.469l-0.116,-0.465l-0.118,-0.463l-0.12,-0.46l-0.123,-0.456l-0.124,-0.455l-0.126,-0.451l-0.128,-0.448l-0.129,-0.446l-0.132,-0.443l-0.133,-0.44l-0.136,-0.437l-0.137,-0.435l-0.139,-0.431l-0.141,-0.429l-0.142,-0.427l-0.144,-0.423l-0.146,-0.421l-0.148,-0.418l-0.15,-0.415l-0.151,-0.413l-0.153,-0.41l-0.154,-0.408l-0.156,-0.404l-0.158,-0.402l-0.159,-0.4l-0.162,-0.397l-0.162,-0.394l-0.164,-0.392l-0.166,-0.389l-0.167,-0.386l-0.169,-0.384l-0.171,-0.382l-0.171,-0.379l-0.174,-0.376l-0.175,-0.374l-0.176,-0.371l-0.178,-0.369l-0.179,-0.366l-0.18,-0.364l-0.182,-0.362l-0.184,-0.359l-0.184,-0.356l-0.186,-0.354l-0.188,-0.352l-0.189,-0.349l-0.19,-0.347l-0.191,-0.345l-0.193,-0.342l-0.194,-0.34l-0.195,-0.337l-0.197,-0.335l-0.197,-0.333l-0.199,-0.33l-0.2,-0.328l-0.202,-0.326l-0.202,-0.323l-0.204,-0.322l-0.205,-0.319l-0.206,-0.316l-0.207,-0.315l-0.208,-0.312l-0.209,-0.31l-0.211,-0.308l-0.211,-0.305l-0.213,-0.303l-0.213,-0.302l-0.215,-0.299l-0.216,-0.296l-0.216,-0.295l-0.218,-0.292l-0.219,-0.291l-0.219,-0.288l-0.221,-0.286l-0.221,-0.284l-0.223,-0.282l-0.223,-0.28l-0.224,-0.277l-0.226,-0.276l-0.226,-0.274l-0.226,-0.271l-0.228,-0.27l-0.229,-0.267l-0.229,-0.265l-0.23,-0.264l-0.231,-0.261l-0.232,-0.26l-0.233,-0.257l-0.233,-0.255l-0.234,-0.254l-0.235,-0.251l-0.235,-0.25l-0.236,-0.247l-0.238,-0.246l-0.237,-0.244l-0.238,-0.241l-0.239,-0.24l-0.24,-0.238l-0.24,-0.236l-0.241,-0.235l-0.241,-0.232l-0.242,-0.23l-0.243,-0.229l-0.243,-0.227l-0.244,-0.224l-0.244,-0.224l-0.245,-0.221l-0.245,-0.219l-0.246,-0.218l-0.246,-0.216l-0.247,-0.213l-0.247,-0.213l-0.248,-0.21l-0.248,-0.209l-0.248,-0.207l-0.249,-0.205l-0.249,-0.203l-0.25,-0.202l-0.25,-0.2l-0.25,-0.198l-0.251,-0.196l-0.251,-0.195l-0.251,-0.193l-0.252,-0.191l-0.251,-0.19l-0.253,-0.188l-0.252,-0.186l-0.253,-0.185l-0.253,-0.183l-0.253,-0.181l-0.253,-0.18l-0.253,-0.178l-0.254,-0.176l-0.254,-0.175l-0.254,-0.173l-0.254,-0.172l-0.254,-0.17l-0.254,-0.168l-0.255,-0.167l-0.254,-0.165l-0.254,-0.164l-0.255,-0.162l-0.255,-0.161l-0.254,-0.158l-0.255,-0.158l-0.254,-0.156l-0.255,-0.154l-0.254,-0.153l-0.255,-0.151l-0.254,-0.15l-0.254,-0.149l-0.254,-0.146l-0.255,-0.146l-0.254,-0.144l-0.253,-0.142l-0.254,-0.141l-0.253,-0.14l-0.254,-0.138l-0.252,-0.136l-0.253,-0.135l-0.253,-0.134l-0.252,-0.132l-0.252,-0.131l-0.252,-0.13l-0.252,-0.128l-0.251,-0.127l-0.251,-0.125l-0.251,-0.124l-0.25,-0.122l-0.25,-0.122l-0.249,-0.119l-0.249,-0.119l-0.249,-0.117l-0.248,-0.116l-0.248,-0.114l-0.247,-0.114l-0.247,-0.111l-0.247,-0.111l-0.246,-0.109l-0.245,-0.108l-0.245,-0.107l-0.244,-0.105l-0.244,-0.104l-0.243,-0.103l-0.243,-0.102l-0.242,-0.1l-0.241,-0.099l-0.241,-0.098l-0.24,-0.097l-0.239,-0.095l-0.239,-0.094l-0.238,-0.093l-0.237,-0.092l-0.237,-0.091l-0.236,-0.089l-0.235,-0.088l-0.234,-0.087l-0.234,-0.086l-0.232,-0.085l-0.232,-0.083l-0.231,-0.083l-0.23,-0.081l-0.23,-0.08l-0.229,-0.079l-0.227,-0.078l-0.226,-0.077l-0.226,-0.076l-0.225,-0.074l-0.224,-0.074l-0.223,-0.072l-0.222,-0.072l-0.217,-0.069l-0.442,-0.138l-0.435,-0.134l-0.43,-0.129l-0.425,-0.125l-0.421,-0.121l-0.417,-0.118l-0.411,-0.113l-0.406,-0.11l-0.402,-0.105l-0.396,-0.102l-0.391,-0.099l-0.389,-0.096l-0.553,-0.134l-0.545,-0.13l-0.532,-0.127l-0.52,-0.122l-0.507,-0.118l-0.496,-0.114l-0.484,-0.111l-0.472,-0.106l-0.46,-0.103l-0.448,-0.099l-0.437,-0.095l-0.426,-0.091l-0.414,-0.088l-0.404,-0.085l-0.392,-0.081l-0.381,-0.078l-0.37,-0.075l-0.359,-0.071l-0.349,-0.069l-0.339,-0.065l-0.327,-0.062l-0.318,-0.059l-0.307,-0.057l-0.297,-0.054l-0.286,-0.051l-0.277,-0.048l-0.267,-0.046l-0.258,-0.043l-0.247,-0.041l-0.238,-0.038l-0.229,-0.036l-0.219,-0.034l-0.211,-0.032l-0.201,-0.03l-0.191,-0.027l-0.179,-0.025l-0.344,-0.047l-0.305,-0.039l-0.271,-0.032l-0.239,-0.026l-0.206,-0.021l-0.175,-0.017l-0.144,-0.012l-0.114,-0.009l-0.086,-0.005l-0.058,-0.004l-0.028,-0.001l-0.217,-0.005l-0.188,-0.019l-0.007,-0.001l-0.004,0l-0.026,-0.002l-0.041,-0.002l-0.054,-0.002l-0.067,-0.001l-0.08,-0.001l-0.092,-0.001l-0.104,0.001Z"/><g id="Casco"><path d="M263.289,182.59c53.661,-53.661 98.812,-95.643 100.763,-93.692c1.951,1.952 -40.03,47.102 -93.692,100.763c-53.661,53.661 -98.811,95.643 -100.762,93.692c-1.952,-1.951 40.03,-47.102 93.691,-100.763Z" style="fill:#fce200;"/><path d="M355.213,97.737c-48.815,-48.815 -127.961,-48.815 -176.776,0c-48.816,48.816 -48.816,127.961 0,176.777l176.776,-176.777Z" style="fill:#fce200;"/></g></g></svg>